<svg version="1.1" xmlns="http://www.w3.org/2000/svg" xmlns:xlink="http://www.w3.org/1999/xlink" width="554" height="394" viewBox="0,0,554,394"><g transform="translate(22.39999,7.7)"><g data-paper-data="{&quot;isPaintingLayer&quot;:true}" fill="#000000" fill-rule="nonzero" stroke="none" stroke-linecap="butt" stroke-linejoin="miter" stroke-miterlimit="10" stroke-dasharray="" stroke-dashoffset="0" style="mix-blend-mode: normal"><path d="M268.08762,80.54858c-0.24858,2.48761 -2.73619,2.23903 -2.73619,2.23903l-0.52266,-0.05223c-21.55522,-2.15396 -43.11576,-4.23135 -64.68301,-6.26121c-16.56665,-1.55921 -33.13465,-3.40737 -49.72536,-4.68064c-17.66015,-1.35534 -35.44637,-1.77226 -53.13724,-2.65707c-8.20736,-0.41886 -16.43318,0.6366 -24.62288,1.25704c-12.49165,0.94634 -24.98364,2.05286 -37.48551,2.86871c-0.03381,0.4245 -0.04964,0.85879 -0.15131,1.25412c-0.83023,3.22829 -1.70163,6.44757 -2.67644,9.63518c-0.3857,1.26122 -1.37156,2.42818 -1.27997,3.74387c0.06181,0.88795 1.16313,1.35049 1.68482,2.07168c0.82358,1.13852 1.5886,2.31808 2.36912,3.48678c11.13527,3.74767 22.26313,7.84247 33.57992,10.69935c2.70086,0.68182 5.46079,1.22168 8.23659,1.70912c0.09715,-0.01111 0.19408,-0.02262 0.29077,-0.03452c4.08199,-0.50242 8.69853,-2.65815 12.6088,-3.90853c4.08813,-1.30725 7.71512,-2.31889 11.24118,-4.7474c1.13627,-0.78259 2.62903,-1.1739 3.45527,-2.27884c0.65135,-0.87106 0.42742,-2.1329 0.64114,-3.19935c0,0 0.60634,-2.42536 3.0317,-1.81902c2.42536,0.60634 1.81902,3.0317 1.81902,3.0317c-0.45295,1.60022 -0.38283,3.45409 -1.35886,4.80065c-1.14751,1.58313 -3.1057,2.37675 -4.68206,3.53354c-3.88475,2.85076 -8.06725,3.98388 -12.62148,5.44021c-1.01995,0.32616 -2.08031,0.70387 -3.16401,1.09661c0.00327,0.00061 0.00654,0.00122 0.00982,0.00183c13.1082,2.43988 26.21639,4.87975 39.32459,7.31963c4.75803,0.88563 9.71117,2.25373 14.52708,2.71399c4.81592,0.46026 9.93852,0.05509 14.77817,0.08671c9.99979,0.06533 19.99957,0.13066 29.99936,0.19599c8.33316,0.05444 16.66631,0.10888 24.99947,0.16333c3.24277,0.02119 6.50231,0.40944 9.7282,0.07834c3.22589,-0.3311 6.3386,-1.37339 9.50946,-2.05286c9.77802,-2.09529 19.55605,-4.19058 29.33407,-6.28587c4.59227,-0.98406 9.91857,-1.46805 14.33692,-3.04807c2.92614,-1.0464 5.48425,-2.92442 8.2319,-4.37621c4.42084,-2.33585 8.84167,-4.67171 13.26251,-7.00756c2.94722,-1.55724 5.84706,-3.20766 8.84167,-4.67171c1.1573,-0.5658 2.80122,-0.49835 3.53791,-1.55512c0.73669,-1.05677 0.10474,-2.57587 0.23527,-3.85744c0.16888,-1.65809 0.34237,-3.32027 0.66238,-4.95593c0.22535,-1.15182 1.55153,-2.36573 0.96946,-3.38488c-0.58207,-1.01915 -2.272,-0.58986 -3.40799,-0.88479c-7.35849,-3.11188 -15.03982,-7.48667 -22.72421,-9.63213c-7.68438,-2.14546 -16.52098,-2.38244 -24.42723,-3.53244c-17.58264,-2.55747 -34.99262,-4.74934 -52.70057,-6.20479c-16.52862,-1.35852 -33.16132,-3.40973 -49.72966,-4.08948c-18.22863,-0.74786 -36.65127,0.0021 -54.89752,0.0021c-9.36945,-0.02108 -18.77064,2.62556 -27.96747,4.34997c-4.91436,0.92144 -9.82872,1.84289 -14.74308,2.76433c-3.10678,0.58252 -6.39361,0.52467 -9.33015,1.69433c-2.75585,1.09769 -4.8581,3.40563 -7.30255,5.08619c-0.53563,0.36825 -1.10113,0.70241 -1.67822,1.02308c1.92564,-0.13859 3.85125,-0.2758 5.77548,-0.42157c16.5057,-1.25043 33.64795,-3.96457 50.17891,-3.15361c17.72763,0.88665 35.54964,1.30776 53.2467,2.66375c16.62725,1.27402 33.23169,3.12708 49.83465,4.68972c21.57681,2.03076 43.14689,4.10907 64.71166,6.26398l0.52266,0.05223c0,0 2.48761,0.24858 2.23903,2.73619zM32.0242,68.45702c1.73143,-1.33765 7.63623,-5.35739 8.3999,-5.88241c0.23401,-0.16088 7.90907,-5.45967 8.21661,-5.58323c0.33465,-0.13445 9.68867,-1.8717 10.32729,-1.99144c4.91436,-0.92144 9.82872,-1.84289 14.74308,-2.76433c9.52736,-1.78638 19.18252,-4.4157 28.88892,-4.43561c18.31487,0 36.80512,-0.74858 55.10248,0.0021c16.63705,0.68256 33.33727,2.73794 49.93427,4.10208c17.81089,1.46391 35.32601,3.66773 53.01069,6.24005c8.12202,1.18138 17.1547,1.45962 25.05209,3.66455c7.89739,2.20493 15.76782,6.64601 23.32714,9.84282c1.93409,1.0034 4.72167,1.11816 5.80227,3.0102c1.0806,1.89204 -0.16295,4.35661 -0.35531,6.52698c-0.10243,1.15572 -1.39036,10.49176 -1.75188,11.01035c-0.44073,0.63222 -8.61127,4.86419 -9.7246,5.45244c-5.89445,3.11447 -11.78889,6.22894 -17.68334,9.34341c-0.19911,0.1052 -8.65067,4.57967 -8.85989,4.65465c-4.63144,1.65982 -10.18036,2.20564 -14.99715,3.2378c-9.77802,2.09529 -19.55605,4.19058 -29.33407,6.28587c-0.33767,0.07236 -9.86833,2.11942 -10.04659,2.13772c-0.17826,0.0183 -9.92604,-0.05006 -10.27137,-0.05232c-8.33316,-0.05444 -16.66631,-0.10888 -24.99947,-0.16333c-9.99979,-0.06533 -19.99957,-0.13066 -29.99936,-0.19599c-4.98796,-0.03259 -10.25833,0.36502 -15.22119,-0.10928c-4.96285,-0.4743 -10.06252,-1.86297 -14.96636,-2.77574c-13.1082,-2.43988 -26.21639,-4.87975 -39.32459,-7.31963c-3.67845,-0.68468 -7.43093,-1.24984 -11.15818,-1.90221c-2.88152,0.01206 -8.16587,0.00771 -8.53562,0.00746c-7.8842,-0.0053 -16.40334,-0.992 -23.45857,-4.46717c-0.67322,-0.33161 -9.18186,-4.53554 -9.48892,-4.80367c-1.18481,-1.0346 -1.89585,-2.49472 -2.72816,-3.84593c-2.63093,-0.90374 -5.25682,-1.79606 -7.87766,-2.66039c-0.30863,-0.24846 -7.64792,-6.13808 -8.12763,-6.59459c-1.68357,-1.6021 -4.75684,-2.74614 -4.78596,-5.06999c-0.02912,-2.32385 3.01451,-3.54455 4.6574,-5.18834c2.35638,-2.35767 5.02255,-4.38458 7.57777,-6.52514c1.07686,-0.90211 1.95037,-2.18265 3.27374,-2.65394c1.69858,-0.60491 3.57518,-0.42242 5.38219,-0.53381zM30.14724,73.37711c-0.54229,0.00855 -1.076,0.06343 -1.58925,0.23206c-0.84041,0.27611 -1.26634,1.2364 -1.92715,1.82449c-2.49003,2.21604 -4.82843,4.6404 -7.57777,6.52514c-0.88303,0.60534 -2.93378,0.26629 -2.92036,1.3368c0.01342,1.07051 2.05503,0.68017 2.95295,1.26319c0.44294,0.2876 6.75749,5.57709 7.35019,6.07178c0.32461,0.10072 0.64917,0.20208 0.97368,0.30404c-0.72,-1.1233 -1.25327,-2.01597 -1.27658,-2.23001c-0.21848,-2.00632 0.89712,-3.93588 1.39647,-5.89131c0.80764,-3.16269 1.69604,-6.30482 2.61781,-9.43619z" stroke-width="0.5"/><path d="M-22.39999,386.3v-394h554v394z" stroke-width="0"/></g></g></svg>